# xmcd
#
# Track frame offsets: 
#        150
#        33207
#        49185
#        67585
#        88765
#        111542
#        123242
#        143002
#        177405
#        218370
#        227070
#        249585
#        272642
#        284002
#
# Disc length: 3885 seconds
#
# Revision: 0
# Processed by: cddbd v1.5.2PL0 Copyright (c) Steve Scherf et al.
# Submitted via: ExactAudioCopyFreeDBPlugin 1.0
#
DISCID=c60f2b0e
DTITLE=Various Artist - 中樂發燒天碟 Vol 7
DYEAR=1900
DGENRE=Country
TTITLE0=龍騰虎躍 
TTITLE1=豐收樂
TTITLE2=得勝令
TTITLE3=牧民新歌
TTITLE4=歡樂歌
TTITLE5=倒垂簾
TTITLE6=山丹丹花開紅艷艷
TTITLE7=春吟
TTITLE8=絲路駝鈴
TTITLE9=繡金匾
TTITLE10=漁海春訊
TTITLE11=草原春光
TTITLE12=秋思曲
TTITLE13=西廂詞
EXTD=
EXTT0=
EXTT1=
EXTT2=
EXTT3=
EXTT4=
EXTT5=
EXTT6=
EXTT7=
EXTT8=
EXTT9=
EXTT10=
EXTT11=
EXTT12=
EXTT13=
PLAYORDER=
